<svg width="600" height="600" viewBox="0 0 600 600" fill="none" xmlns="http://www.w3.org/2000/svg">
<g clip-path="url(#clip0_124_1527)">
<path d="M240.883 389.872L296.408 597.194C297.4 600.924 302.669 600.89 303.661 597.194L344.304 445.372C344.749 443.73 344.03 441.985 342.559 441.163L246.357 385.663C243.449 383.986 239.993 386.655 240.849 389.906L240.883 389.872Z" fill="#FED08F"/>
<path d="M92.6108 512.677L228.601 434.149C230.072 433.293 230.791 431.582 230.346 429.94L201.608 322.6C200.753 319.384 196.408 318.802 194.732 321.677L121.006 449.41L87.4791 507.511C85.5633 510.83 89.2923 514.559 92.6108 512.643V512.677Z" fill="#FBCBD5"/>
<path d="M389.873 359.213L597.229 303.644C600.958 302.652 600.958 297.382 597.229 296.39L445.433 255.706C443.79 255.261 442.046 255.98 441.19 257.451L385.665 353.704C383.989 356.613 386.657 360.068 389.873 359.213Z" fill="#FED08F"/>
<path d="M257.509 158.802L353.712 214.371C356.62 216.048 360.075 213.379 359.22 210.163L303.695 2.77163C302.703 -0.958055 297.434 -0.923838 296.442 2.77163L279.097 67.6476L255.799 154.594C255.354 156.236 256.073 157.981 257.544 158.837L257.509 158.802Z" fill="#FED08F"/>
<path d="M2.77076 303.576L154.704 344.26C156.346 344.705 158.091 343.986 158.946 342.515L214.505 246.193C216.182 243.285 213.513 239.829 210.263 240.684L2.805 296.287C-0.924044 297.28 -0.889832 302.549 2.805 303.542L2.77076 303.576Z" fill="#FED08F"/>
<path d="M321.69 405.372L507.629 512.78C510.948 514.696 514.677 510.967 512.761 507.648L434.212 371.463C433.356 369.991 431.611 369.273 429.969 369.718L322.58 398.529C319.364 399.384 318.782 403.73 321.69 405.406V405.372Z" fill="#FBCBD5"/>
<path d="M371.468 165.817C369.997 166.672 369.278 168.383 369.723 170.026L383.955 223.268C383.955 223.268 383.989 223.336 383.989 223.405L387.787 237.434C387.787 237.434 387.787 237.536 387.821 237.571L398.495 277.502C399.35 280.753 403.695 281.3 405.371 278.426L512.761 92.3524C514.677 89.0334 510.948 85.3037 507.629 87.2198L371.502 165.817H371.468Z" fill="#FBCBD5"/>
<path d="M217.243 321.677C217.243 321.677 217.38 321.985 217.414 322.156C219.33 329.376 222.203 336.322 225.932 342.754C226.035 342.891 226.103 343.062 226.172 343.199C233.664 355.997 244.304 366.604 257.065 373.995C257.167 374.029 257.236 374.063 257.304 374.132C263.77 377.861 270.715 380.736 277.968 382.686C292.405 386.553 307.698 386.553 322.135 382.686C329.388 380.736 336.298 377.861 342.799 374.132C342.867 374.063 342.936 374.029 343.038 373.995C355.936 366.501 366.644 355.723 374.136 342.823C377.831 336.424 380.671 329.581 382.621 322.464C382.621 322.361 382.621 322.224 382.689 322.121C386.589 307.648 386.589 292.421 382.689 277.981C382.655 277.844 382.621 277.742 382.621 277.605C380.671 270.453 377.797 263.61 374.068 257.177C370.373 250.778 365.891 244.893 360.725 239.692C355.56 234.491 349.709 229.974 343.346 226.245C343.141 226.176 342.97 226.074 342.764 225.937C336.367 222.207 329.525 219.367 322.34 217.417C322.272 217.382 322.169 217.382 322.101 217.348C307.629 213.447 292.405 213.447 277.934 217.348C277.797 217.382 277.694 217.417 277.557 217.451C270.441 219.367 263.599 222.241 257.236 225.902C257.099 226.005 256.928 226.074 256.791 226.142C243.962 233.67 233.322 244.346 225.898 257.211C222.238 263.61 219.398 270.419 217.482 277.502C217.448 277.639 217.414 277.776 217.38 277.879C213.548 292.216 213.479 307.305 217.243 321.677Z" fill="#B3E59A"/>
<path d="M87.4097 92.4893L165.925 228.537C166.78 230.009 168.491 230.727 170.133 230.282L223.332 216.048L277.454 201.574C280.67 200.719 281.252 196.373 278.378 194.696L92.5415 87.3567C89.223 85.4405 85.4939 89.1702 87.4097 92.4893Z" fill="#FBCBD5"/>
</g>
<defs>
<clipPath id="clip0_124_1527">
<rect width="600" height="600" fill="white" transform="matrix(-1 0 0 1 600 0)"/>
</clipPath>
</defs>
</svg>
