<svg width="71" height="64" viewBox="0 0 71 64" fill="none" xmlns="http://www.w3.org/2000/svg">
<path d="M35.3707 27.9897C36.3707 27.9897 37.1808 29.3197 37.1808 30.9597C37.1808 32.5997 36.3707 33.9297 35.3707 33.9297C34.3707 33.9297 33.5508 32.5997 33.5508 30.9597C33.5508 29.3197 34.3707 27.9897 35.3707 27.9897ZM46.5608 27.9897C47.5608 27.9897 48.3807 29.3197 48.3807 30.9597C48.3807 32.5997 47.5608 33.9297 46.5608 33.9297C45.5608 33.9297 44.7507 32.5997 44.7507 30.9597C44.7507 29.3197 45.5608 27.9897 46.5608 27.9897Z" stroke="#E0E2DB" stroke-width="2.5" stroke-linecap="round" stroke-linejoin="round"/>
<path d="M47.7105 47.6699C52.4805 51.0799 56.2005 56.9399 56.2005 62.7399M22.1305 48.3399C17.3305 51.5799 14.4206 56.9499 14.3106 62.7399M52.2005 52.0299C52.2005 52.0299 57.4005 38.0599 62.2205 36.3599C67.0405 34.6599 70.1205 53.7499 68.7305 62.7499M18.2205 52.0099C18.2205 52.0099 13.1106 38.0599 8.29057 36.3599C3.47057 34.6599 0.39056 53.7499 1.78056 62.7499M35.3505 29.5099C34.6405 30.5099 35.3705 32.4399 35.3705 32.4399C36.1405 31.4499 35.4905 29.3299 35.3505 29.5099ZM46.5406 29.5099C45.8406 30.5099 46.5606 32.4399 46.5606 32.4399C47.3306 31.4499 46.6806 29.3299 46.5406 29.5099ZM34.9905 8.19992C45.7905 8.19992 54.5606 6.67991 54.5606 4.80991C54.5606 2.93991 45.7905 1.41992 34.9905 1.41992C24.1905 1.41992 15.4306 2.93991 15.4306 4.80991C15.4306 6.67991 24.2005 8.19992 34.9905 8.19992ZM35.2505 13.3399C46.2005 13.3399 55.0705 22.2199 55.0805 33.1599C55.0805 42.8299 44.9205 52.9899 35.2505 52.9899C24.3105 52.9799 15.4406 44.1099 15.4306 33.1599C15.4306 22.2099 24.3005 13.3399 35.2505 13.3399Z" stroke="#E0E2DB" stroke-width="2.5" stroke-linecap="round" stroke-linejoin="round"/>
</svg>
