<svg width="64" height="72" viewBox="0 0 64 72" fill="none" xmlns="http://www.w3.org/2000/svg">
<path d="M39.9202 56.8501C40.6202 58.1501 40.9801 59.5901 40.9801 61.0601C40.9801 65.9901 36.9901 69.9801 32.0602 69.9801C27.1302 69.9801 23.1402 65.9901 23.1402 61.0601C23.1402 59.5901 23.5001 58.1401 24.2001 56.8501M39.5502 10.2201C43.7302 11.8201 46.5302 15.8001 46.6102 20.2801M9.90015 45.5201C16.5001 44.8801 23.1402 44.6401 29.7702 44.8001M1.41016 56.8501C12.1802 48.7401 12.7801 36.7101 11.5401 23.9601C10.9901 18.1801 12.9002 12.4301 16.8102 8.12012C20.7202 3.82012 26.2602 1.37012 32.0702 1.37012C37.8802 1.37012 43.4202 3.82012 47.3302 8.12012C51.2402 12.4201 53.1501 18.1701 52.5901 23.9501C51.3601 36.7001 51.9502 48.7301 62.7202 56.8401H1.41016V56.8501Z" stroke="#E0E2DB" stroke-width="2.5" stroke-linecap="round" stroke-linejoin="round"/>
</svg>
