<svg width="53" height="84" viewBox="0 0 53 84" fill="none" xmlns="http://www.w3.org/2000/svg">
<path d="M39.9802 15.7398C39.9802 15.7398 61.1502 64.0998 46.6502 69.0398C32.1602 73.9798 17.9002 85.9998 7.8302 80.4298C-2.2398 74.8598 1.2202 59.5698 11.2102 56.0398C21.6202 52.3698 18.1802 45.0798 15.3502 37.0498C12.5202 29.0198 11.2102 25.3099 11.2102 25.3099M3.66022 62.6899C8.86022 64.2799 13.4202 67.4999 16.6502 71.8699M18.1802 76.8199C18.1802 76.8199 19.1602 79.7199 18.8302 81.1399M42.1502 70.7898C42.1502 70.7898 35.8702 54.4899 50.9902 50.4799M16.6402 40.7199L21.6702 35.0699M36.7702 32.3398L32.9802 36.8298L26.3302 35.7698M45.3402 29.6899L40.2602 28.2998M42.5902 6.05985C42.0602 4.44985 40.9002 3.11984 39.3902 2.35984C37.8702 1.59984 36.1202 1.47986 34.5102 2.00986L6.51022 11.3298C4.90022 11.8598 3.57021 13.0199 2.81021 14.5299C2.05021 16.0499 1.9202 17.7999 2.4602 19.4099C2.6702 20.0299 2.8702 20.6598 3.0802 21.2698C3.6202 22.8798 4.77021 24.2099 6.28021 24.9699C7.80021 25.7299 9.55022 25.8599 11.1602 25.3199L39.1602 15.9999C40.7702 15.4599 42.1002 14.3098 42.8602 12.7998C43.6202 11.2798 43.7402 9.52987 43.2102 7.91987C43.0002 7.30987 42.7902 6.67985 42.5902 6.05985Z" stroke="#E0E2DB" stroke-width="2.5" stroke-linecap="round" stroke-linejoin="round"/>
</svg>
