<svg width="71" height="91" viewBox="0 0 71 91" fill="none" xmlns="http://www.w3.org/2000/svg">
<path d="M33.5193 74.9299L40.4093 68.0399M62.7693 31.2599L68.6793 25.3499M32.3493 53.8199L39.2093 47.3099M61.3493 17.7299L66.3693 12.7099M31.0193 30.2199L37.9093 23.3299M52.3493 8.87988L57.4793 3.74987M34.2893 88.7999L30.4893 20.8299C30.4893 10.3999 38.9393 1.94987 49.3693 1.94987C59.0493 1.90987 67.1593 9.24988 68.0993 18.8799L69.5393 34.9299L63.1793 35.4299L61.6193 19.0699C60.7993 13.1199 55.7493 8.65987 49.7493 8.58987C43.1693 8.58987 37.8193 13.8999 37.7593 20.4799L41.5593 88.3999L34.2993 88.8099L34.2893 88.7999Z" stroke="#E0E2DB" stroke-width="2.5" stroke-linecap="round" stroke-linejoin="round"/>
<path d="M28.2897 78.6697L23.2497 73.6297M6.90973 46.7597L2.59973 42.4397M29.2397 61.4097L24.1997 57.2197M7.95972 36.8697L4.28973 33.1997M30.1097 45.9897L25.0797 40.9597M14.5297 30.4097L10.7797 26.6597M27.7197 88.7997L30.4897 39.1397C30.4897 31.5197 24.3097 25.3497 16.6997 25.3497C9.62974 25.3297 3.70971 30.6797 3.01971 37.7197L1.96973 49.4497L6.61972 49.8197L7.75974 37.8597C8.35974 33.5097 12.0497 30.2597 16.4297 30.2097C21.2397 30.2097 25.1397 34.0897 25.1897 38.8997L22.4197 88.5197L27.7197 88.8197V88.7997Z" stroke="#E0E2DB" stroke-width="2.5" stroke-linecap="round" stroke-linejoin="round"/>
</svg>
