<svg width="38" height="85" viewBox="0 0 38 85" fill="none" xmlns="http://www.w3.org/2000/svg">
<path d="M2.2002 53.8402C2.2002 53.8402 3.51021 59.1702 8.47021 57.4702C13.4302 55.7702 13.1402 51.8002 12.9802 50.0902C12.8202 48.3802 14.4902 44.6802 18.2502 47.8402C22.0102 51.0002 23.8302 49.4202 25.3302 44.6202M28.5603 32.1302C28.5603 32.1302 27.5602 35.8702 27.3402 36.6902M36.3103 40.2002C36.3103 38.0202 35.4503 35.9402 33.9103 34.4002C32.3703 32.8602 30.2802 32.0002 28.1002 32.0002H10.4103C8.23028 32.0002 6.14022 32.8602 4.60022 34.4002C3.06022 35.9402 2.2002 38.0202 2.2002 40.2002V80.5202C2.2002 81.1702 2.45028 81.7902 2.91028 82.2402C3.37028 82.7002 3.99026 82.9602 4.64026 82.9602H33.8702C34.5202 82.9602 35.1402 82.7002 35.6002 82.2402C36.0502 81.7802 36.3103 81.1602 36.3103 80.5202V40.2002ZM18.6102 27.4202C18.6102 27.4202 6.82022 23.1502 14.1002 14.2002C21.3802 5.2502 17.9803 4.05021 17.0103 2.02021C16.0403 -0.00979136 31.9402 12.8702 27.9602 20.7102C23.9802 28.5502 18.6102 27.4202 18.6102 27.4202Z" stroke="#E0E2DB" stroke-width="2.5" stroke-linecap="round" stroke-linejoin="round"/>
</svg>
