<svg width="75" height="80" viewBox="0 0 75 80" fill="none" xmlns="http://www.w3.org/2000/svg">
<path d="M66.0901 61.98L56.0601 59.62M15.4901 38.99L6.89012 36.97M54.6001 41.77L46.8501 41.01M9.25011 26.04L1.95012 24.32M43.4701 20.39L33.4401 18.03M12.4101 13.08L4.95012 11.32M73.1101 74.88L38.7001 11.66C32.9001 2.29001 20.6001 -0.599995 11.2201 5.19001C2.50011 10.54 -0.709895 21.65 3.8101 30.83L11.4501 46.06L17.4501 42.97L9.75011 27.39C7.17011 21.59 9.2301 14.77 14.5901 11.36C20.5101 7.7 28.2701 9.49001 31.9801 15.38L66.3601 78.55L73.1001 74.88H73.1101Z" stroke="#E0E2DB" stroke-width="2.5" stroke-linecap="round" stroke-linejoin="round"/>
</svg>
