<svg width="73" height="74" viewBox="0 0 73 74" fill="none" xmlns="http://www.w3.org/2000/svg">
<path d="M51.3603 52.26C58.7003 45.14 58.0303 32.53 49.8703 24.11H49.8603C41.7003 15.69 29.1003 14.63 21.7703 21.75C14.4403 28.87 15.1103 41.48 23.2703 49.9C31.4303 58.32 44.0203 59.38 51.3603 52.26ZM51.3603 52.26C46.2503 57.21 46.7103 65.98 52.3803 71.84L52.4003 71.86C64.7103 66.06 70.9103 53.9099 70.9103 53.9099V53.9C65.2303 48.04 56.4703 47.31 51.3603 52.26ZM51.3603 39.54C49.9503 43.1 49.5003 44.79 46.6203 47.59C41.8403 51.96 35.5303 54.2599 29.0603 53.9799M35.2703 17.1C34.5703 21.99 32.2703 26.5 28.7403 29.96M20.7003 34.78C19.7903 35.05 17.6903 35.78 16.7503 35.94M50.8503 52.76C50.5303 54.7 50.8103 56.6999 51.6503 58.4799M51.8603 51.78C53.8103 51.52 55.8003 51.86 57.5503 52.76M20.6903 21.68C18.7403 21.94 16.7503 21.6 15.0003 20.7M21.7003 20.7C22.0203 18.76 21.7403 16.76 20.9003 14.98M20.2903 1.70996C20.2903 1.70996 7.96027 7.53998 1.78027 19.67L1.80027 19.69C7.48027 25.53 16.2403 26.26 21.3403 21.31C26.4403 16.36 25.9803 7.56996 20.3003 1.70996H20.2903Z" stroke="#E0E2DB" stroke-width="2.5" stroke-linecap="round" stroke-linejoin="round"/>
</svg>
