<svg width="63" height="76" viewBox="0 0 63 76" fill="none" xmlns="http://www.w3.org/2000/svg">
<path d="M47.2805 72.3598L61.6205 70.0298M49.3705 39.9798L54.4505 71.1998M43.1005 13.9398L52.8905 12.3398M1.48047 70.5698L15.4105 74.7098M17.4605 42.3198L8.4505 72.6398M16.9305 15.6498L27.8505 18.8998M35.8605 4.48979L50.9405 2.02979L56.5405 29.5798C57.0905 32.9798 53.5305 39.2898 49.3705 39.9698C45.2105 40.6498 39.8205 35.7798 39.2705 32.3898L35.8605 4.48979ZM20.7405 4.48979L35.3805 8.84979L28.4305 36.0898C27.4505 39.3898 21.5005 43.5298 17.4605 42.3298C13.4205 41.1298 10.6905 34.3998 11.6705 31.1098L20.7405 4.49979V4.48979Z" stroke="#E0E2DB" stroke-width="2.5" stroke-linecap="round" stroke-linejoin="round"/>
</svg>
