<svg width="64" height="80" viewBox="0 0 64 80" fill="none" xmlns="http://www.w3.org/2000/svg">
<path d="M30.0505 41.4101V38.7701C30.0505 38.0701 29.4805 37.4901 28.7705 37.4901H22.3305C21.6305 37.4901 21.0605 38.0601 21.0605 38.7701V41.4101M12.8505 57.9601C12.8505 57.9601 16.7205 54.2701 23.2505 57.9601M28.2705 59.7101C28.2705 59.7101 33.5305 61.8801 38.5805 56.3801M38.2305 51.1401C38.2305 51.1401 33.1405 56.3301 28.7705 53.9901M23.2505 51.6301C23.2505 51.6301 18.6705 48.2501 12.4305 52.3701M49.6305 21.2301H3.93048L1.48047 78.0101H48.2505M60.8005 42.1601L60.3005 29.7801L59.9605 21.2201H49.6305L49.1305 41.7801M48.2505 78.0001L55.2405 71.5101M48.2505 78.0001L48.9805 47.9401M48.2505 78.0001H62.2305M55.2405 71.5101V47.9401M55.2405 71.5101L62.2305 78.0001M62.2305 78.0001L60.8005 42.1501M9.0105 21.2101C9.0105 10.3601 17.0105 1.56006 26.8605 1.56006C36.7105 1.56006 44.7105 10.3701 44.7105 21.2101M19.5405 21.2101C19.5405 10.3601 27.5405 1.56006 37.3905 1.56006C47.2405 1.56006 55.2405 10.3701 55.2405 21.2101M25.5505 37.4901C22.8605 32.7701 21.9105 28.1401 25.5505 28.4901C29.1505 28.7801 28.2505 32.7701 25.5505 37.4901ZM25.5505 40.6301C32.9205 40.6301 38.9005 46.61 38.9105 53.98C38.9105 61.35 32.9205 67.3301 25.5505 67.3301C18.1805 67.3301 12.2005 61.35 12.2005 53.98C12.2005 46.61 18.1805 40.6301 25.5505 40.6201V40.6301Z" stroke="#E0E2DB" stroke-width="2.5" stroke-linecap="round" stroke-linejoin="round"/>
</svg>
