<svg width="53" height="76" viewBox="0 0 53 76" fill="none" xmlns="http://www.w3.org/2000/svg">
<path d="M4.39001 74.0502H48.72M23.86 62.8802V74.0502H29.25V62.8802M30.08 42.7402C32.28 42.7802 34.48 42.6702 36.67 42.4002M26.22 62.8802C17.86 62.7402 9.54 61.5103 1.5 59.2103C1.5 59.2103 6.05997 55.2802 8.71997 52.9902C11.3 50.7702 18.57 42.5702 16.47 42.4002C14.37 42.2302 9.34003 41.3102 9.34003 41.3102C13.1 38.8002 22.63 20.7802 22.63 20.7802C21.19 20.7302 19.76 20.4902 18.38 20.0602C21.3 17.5302 26.55 1.49023 26.55 1.49023L26.61 1.67026C27.2 3.44026 31.99 17.6902 34.72 20.0602C33.35 20.4902 31.92 20.7302 30.48 20.7802C30.48 20.7802 40.01 38.8002 43.77 41.3102C43.77 41.3102 38.73 42.2302 36.63 42.4002C34.53 42.5702 41.81 50.7702 44.39 52.9902C47.04 55.2802 51.61 59.2103 51.61 59.2103C43.46 61.5403 35.03 62.7702 26.55 62.8802H26.22Z" stroke="#E0E2DB" stroke-width="2.5" stroke-linecap="round" stroke-linejoin="round"/>
</svg>
