<svg width="56" height="79" viewBox="0 0 56 79" fill="none" xmlns="http://www.w3.org/2000/svg">
<path d="M36.6302 26.9999V21.8399C36.6302 20.4699 35.5203 19.3499 34.1503 19.3499H21.5703C20.1903 19.3499 19.0703 20.4599 19.0703 21.8399V26.9999M3.04022 59.3199C3.04022 59.3199 11.6402 50.7299 24.5502 59.3199M33.1503 62.7299C33.1503 62.7299 43.4202 66.9699 53.2902 56.2199M52.6102 45.9999C52.6102 45.9999 46.2803 56.3799 31.7103 51.0799M23.3502 46.9299C23.3502 46.9299 14.4102 40.3299 2.23022 48.3699M27.8502 19.3499C22.6002 10.1399 20.7402 1.08995 27.8502 1.76995C34.8802 2.33995 33.1102 10.1399 27.8502 19.3499ZM27.8502 25.4799C42.2502 25.4799 53.9102 37.1599 53.9202 51.5499C53.9202 65.9499 42.2502 77.6099 27.8502 77.6199C13.4502 77.6199 1.79027 65.9399 1.78027 51.5499C1.78027 37.1499 13.4502 25.4899 27.8502 25.4799Z" stroke="#E0E2DB" stroke-width="2.5" stroke-linecap="round" stroke-linejoin="round"/>
</svg>
