<svg width="78" height="65" viewBox="0 0 78 65" fill="none" xmlns="http://www.w3.org/2000/svg">
<path d="M28.8196 31.3502C19.7796 30.3602 -6.98037 20.6102 5.24963 1.97021" stroke="#E0E2DB" stroke-width="2.5" stroke-linecap="round" stroke-linejoin="round"/>
<path d="M11.77 13.6504C11.77 13.6504 7.1 21.4404 10.62 24.4204" stroke="#E0E2DB" stroke-width="2.5" stroke-linecap="round" stroke-linejoin="round"/>
<path d="M20.5793 23.4902C20.5793 23.4902 18.1293 27.6703 20.3493 29.2303" stroke="#E0E2DB" stroke-width="2.5" stroke-linecap="round" stroke-linejoin="round"/>
<path d="M49.6895 31.3502C58.7295 30.3602 85.4895 20.6102 73.2495 1.97021" stroke="#E0E2DB" stroke-width="2.5" stroke-linecap="round" stroke-linejoin="round"/>
<path d="M66.7295 13.6504C66.7295 13.6504 71.4095 21.4404 67.8895 24.4204" stroke="#E0E2DB" stroke-width="2.5" stroke-linecap="round" stroke-linejoin="round"/>
<path d="M57.9297 23.4902C57.9297 23.4902 60.3797 27.6703 58.1597 29.2303" stroke="#E0E2DB" stroke-width="2.5" stroke-linecap="round" stroke-linejoin="round"/>
<path d="M39.1602 63.5905C49.7102 63.5905 52.4801 52.4004 52.4801 44.3604C52.4801 40.0104 52.4301 34.9604 49.7701 31.8004C47.5101 29.1204 42.9602 27.9805 39.1602 27.9805" stroke="#E0E2DB" stroke-width="2.5" stroke-linecap="round" stroke-linejoin="round"/>
<path d="M39.1599 63.5905C28.6099 63.5905 25.8398 52.4004 25.8398 44.3604C25.8398 40.0104 25.8899 34.9604 28.5499 31.8004C30.8099 29.1204 35.3599 27.9805 39.1599 27.9805" stroke="#E0E2DB" stroke-width="2.5" stroke-linecap="round" stroke-linejoin="round"/>
<path d="M33.0801 36.9004C34.5801 36.9004 35.8002 38.5804 35.8002 40.6504C35.9902 42.0604 35.0101 43.3604 33.6001 43.5504C33.4301 43.5704 33.2601 43.5804 33.0801 43.5704C31.6601 43.6704 30.4301 42.5904 30.3301 41.1704C30.3201 41.0004 30.3301 40.8204 30.3501 40.6504C30.3501 38.5804 31.5701 36.9004 33.0801 36.9004Z" stroke="#E0E2DB" stroke-width="2.5" stroke-linecap="round" stroke-linejoin="round"/>
<path d="M46.2393 36.9004C47.7493 36.9004 48.9693 38.5804 48.9693 40.6504C49.1593 42.0604 48.1693 43.3604 46.7593 43.5504C46.5893 43.5704 46.4093 43.5804 46.2393 43.5704C44.8193 43.6704 43.5893 42.5904 43.4893 41.1704C43.4793 41.0004 43.4893 40.8204 43.5093 40.6504C43.5093 38.5804 44.7293 36.9004 46.2393 36.9004Z" stroke="#E0E2DB" stroke-width="2.5" stroke-linecap="round" stroke-linejoin="round"/>
<path d="M52.4795 36.8003C52.4795 36.8003 58.2395 31.9203 62.6995 31.9503C62.6995 31.9503 61.5995 45.0903 52.4795 41.0603" stroke="#E0E2DB" stroke-width="2.5" stroke-linecap="round" stroke-linejoin="round"/>
<path d="M25.6899 36.8003C25.6899 36.8003 19.92 31.9203 15.46 31.9503C15.46 31.9503 16.5699 45.0903 25.6899 41.0603" stroke="#E0E2DB" stroke-width="2.5" stroke-linecap="round" stroke-linejoin="round"/>
<path d="M35.5498 51.7004C37.9098 51.0204 40.4098 51.0204 42.7698 51.7004C42.3398 53.2504 41.2898 54.5404 39.8698 55.2804C37.5398 56.4104 35.5498 51.7004 35.5498 51.7004Z" stroke="#E0E2DB" stroke-width="2.5" stroke-linecap="round" stroke-linejoin="round"/>
<path d="M43.9696 57.5601C43.9696 59.1701 41.8097 60.48 39.1597 60.48C36.5097 60.48 34.3496 59.1701 34.3496 57.5601" stroke="#E0E2DB" stroke-width="2.5" stroke-linecap="round" stroke-linejoin="round"/>
</svg>
