<svg width="66" height="84" viewBox="0 0 66 84" fill="none" xmlns="http://www.w3.org/2000/svg">
<path fill-rule="evenodd" clip-rule="evenodd" d="M25.1998 45.1899C26.6398 45.1899 27.8098 46.3599 27.8098 47.7999C27.8098 49.2399 26.6398 50.4099 25.1998 50.4099C23.7598 50.4099 22.5898 49.2399 22.5898 47.7999C22.5898 46.3599 23.7598 45.1899 25.1998 45.1899ZM41.3198 45.1899C42.7598 45.1899 43.9298 46.3599 43.9298 47.7999C43.9298 49.2399 42.7598 50.4099 41.3198 50.4099C39.8798 50.4099 38.7098 49.2399 38.7098 47.7999C38.7098 46.3599 39.8798 45.1899 41.3198 45.1899Z" fill="#E0E2DB"/>
<path d="M46.0996 68.3999C50.8496 71.6199 53.7496 76.9399 53.8496 82.6799" stroke="#E0E2DB" stroke-width="2.5" stroke-linecap="round" stroke-linejoin="round"/>
<path d="M20.0696 68.3999C15.3096 71.6099 12.4096 76.9399 12.3096 82.6799" stroke="#E0E2DB" stroke-width="2.5" stroke-linecap="round" stroke-linejoin="round"/>
<path d="M53.9597 52.05C54.0397 48.65 53.9996 46.22 53.8496 42.75" stroke="#E0E2DB" stroke-width="2.5" stroke-linecap="round" stroke-linejoin="round"/>
<path d="M12.3092 43.3999C12.1392 48.8299 12.3692 46.5699 12.4492 51.4699" stroke="#E0E2DB" stroke-width="2.5" stroke-linecap="round" stroke-linejoin="round"/>
<path d="M53.9592 52.05C53.9592 61.94 44.0192 73.05 33.1392 73.05C22.2592 73.05 12.4492 61.62 12.4492 51.48" stroke="#E0E2DB" stroke-width="2.5" stroke-linecap="round" stroke-linejoin="round"/>
<path d="M54 44.7902L63.93 33.9302C63.93 33.9302 59.98 53.0902 54 51.4802" stroke="#E0E2DB" stroke-width="2.5" stroke-linecap="round" stroke-linejoin="round"/>
<path d="M11.7095 44.7902L1.76953 33.9302C1.76953 33.9302 5.71953 53.0902 11.7095 51.4802" stroke="#E0E2DB" stroke-width="2.5" stroke-linecap="round" stroke-linejoin="round"/>
<path d="M12.3096 43.4001C12.3096 34.9501 21.6595 28.0801 33.1595 28.0801C44.6595 28.0801 53.8495 34.9401 53.8495 43.4001" stroke="#E0E2DB" stroke-width="2.5" stroke-linecap="round" stroke-linejoin="round"/>
<path d="M39.9996 29.0103C39.9196 32.4103 41.6496 35.6003 44.5496 37.3803C42.7496 39.2603 40.2597 40.3203 37.6497 40.3203C32.3797 40.3203 28.0996 36.0403 28.0996 30.7703C28.0996 30.2303 28.1496 29.7003 28.2396 29.1703" stroke="#E0E2DB" stroke-width="2.5" stroke-linecap="round" stroke-linejoin="round"/>
<path d="M12.4495 41.6201C11.8595 26.5001 31.4895 14.2101 44.5495 2.08008C50.5295 16.3601 53.7195 27.8301 53.7095 41.6201" stroke="#E0E2DB" stroke-width="2.5" stroke-linecap="round" stroke-linejoin="round"/>
<path d="M22.2793 21.8401C22.2793 21.8401 31.8293 18.6901 38.5093 20.2701" stroke="#E0E2DB" stroke-width="2.5" stroke-linecap="round" stroke-linejoin="round"/>
<path d="M27.6396 57.4399H38.7097C38.7097 57.4399 34.4196 68.5599 27.6396 57.4399Z" stroke="#E0E2DB" stroke-width="2.5" stroke-linecap="round" stroke-linejoin="round"/>
</svg>
