<svg width="85" height="56" viewBox="0 0 85 56" fill="none" xmlns="http://www.w3.org/2000/svg">
<path d="M1.49023 54.3498H83.6102M45.5002 8.95981H77.6002M77.6002 8.95981L72.9003 15.1698V47.6298H76.7502V54.3398H8.36023V47.6298H12.2003V15.1698L7.83026 8.95981M77.6002 8.95981V1.7998H7.83026V8.95981M7.83026 8.95981H26.1403M18.6702 54.3498V27.3898L32.8502 23.1098H52.4202L66.6002 27.3898V54.3498M34.3002 47.1398H27.4802V54.3498H57.4402V47.1398H48.9102" stroke="#E0E2DB" stroke-width="2.5" stroke-linecap="round" stroke-linejoin="round"/>
<path d="M43.1398 23.1096C49.0498 28.3896 57.7298 38.7596 48.0998 47.9596C48.0998 47.9596 44.1198 51.2896 40.0398 50.5496C40.0398 50.5496 24.5198 44.6596 32.8898 33.7696C32.8898 33.7696 35.7598 39.8796 38.7098 31.6496C40.1698 27.5796 40.3298 24.9196 40.0498 23.0996" stroke="#E0E2DB" stroke-width="2.5" stroke-linecap="round" stroke-linejoin="round"/>
</svg>
