<svg width="69" height="71" viewBox="0 0 69 71" fill="none" xmlns="http://www.w3.org/2000/svg">
<path d="M4.72998 34.5099V69.2699H64.98V34.5099M26.42 21.7899V34.5099M43.29 21.7899V34.5099M28.57 34.5099V38.8999M28.57 45.8699V69.2699M41.01 34.5099V56.5399M41.01 63.7899V69.2599M34.85 21.7799C34.85 21.7799 33.33 -2.41008 18.57 2.26992C3.81001 6.94992 18.9 21.2399 34.85 21.7799ZM34.85 21.7799C34.85 21.7799 36.37 -2.41008 51.14 2.26992C65.91 6.94992 50.81 21.2399 34.85 21.7799ZM2 34.5099H67.7V21.7899H2V34.5099ZM2 34.4999H67.7V21.7799H2V34.4999Z" stroke="#E0E2DB" stroke-width="2.5" stroke-linecap="round" stroke-linejoin="round"/>
</svg>
