<svg width="69" height="89" viewBox="0 0 69 89" fill="none" xmlns="http://www.w3.org/2000/svg">
<path d="M28.6702 9.75977C30.0302 9.75977 31.1302 11.2698 31.1302 13.1298C31.3002 14.3998 30.4102 15.5698 29.1402 15.7398C28.9902 15.7598 28.8302 15.7698 28.6702 15.7598C27.3902 15.8498 26.2802 14.8798 26.2002 13.5998C26.1902 13.4398 26.2002 13.2898 26.2202 13.1298C26.2202 11.2698 27.3202 9.75977 28.6702 9.75977Z" stroke="#E0E2DB" stroke-width="2.5" stroke-linecap="round" stroke-linejoin="round"/>
<path d="M40.52 9.75977C41.87 9.75977 42.97 11.2698 42.97 13.1298C43.14 14.3998 42.2501 15.5698 40.9801 15.7398C40.8301 15.7598 40.6701 15.7698 40.5101 15.7598C39.2301 15.8498 38.1201 14.8798 38.0401 13.5998C38.0301 13.4398 38.04 13.2898 38.06 13.1298C38.06 11.2698 39.16 9.75977 40.52 9.75977Z" stroke="#E0E2DB" stroke-width="2.5" stroke-linecap="round" stroke-linejoin="round"/>
<path d="M29.5102 66.58L22.3502 83.34C21.6202 85.72 19.4302 87.35 16.9402 87.35C13.8202 87.35 11.2902 84.82 11.2802 81.69C11.2802 80.7 11.5402 79.73 12.0302 78.87L21.4702 56.77M24.7802 28.66H6.69016C3.92016 28.66 1.66016 31.19 1.66016 34.32C1.66016 37.45 3.91016 39.98 6.69016 39.98H21.4702C21.4702 39.98 26.3202 45.28 21.4702 56.79M44.0501 28.66H62.2301C65.0101 28.66 67.2602 31.19 67.2602 34.32C67.2602 37.45 65.0101 39.98 62.2301 39.98H47.4301C47.4301 39.98 42.5801 45.28 47.4301 56.79L56.8001 78.73C57.3501 79.62 57.6402 80.65 57.6402 81.69C57.6402 84.81 55.1101 87.35 51.9801 87.35C49.5201 87.35 47.3402 85.76 46.5902 83.41H46.5802L39.4301 66.67C38.5501 64.72 36.6001 63.46 34.4601 63.46C32.3101 63.46 30.3602 64.71 29.4702 66.67M44.0501 28.67C38.7701 28.39 41.2401 24.45 41.8701 24C44.9201 21.69 46.7102 18.08 46.7102 14.25C46.7002 7.48 41.2201 2 34.4601 2C27.6901 2.01 22.2101 7.49 22.2101 14.25C22.1801 18.07 23.9402 21.68 26.9702 24C27.6002 24.45 30.0702 28.39 24.7902 28.67" stroke="#E0E2DB" stroke-width="2.5" stroke-linecap="round" stroke-linejoin="round"/>
<path fill-rule="evenodd" clip-rule="evenodd" d="M35.3098 34.6099C36.8298 34.6099 38.0698 35.8399 38.0698 37.3699C38.0698 38.8899 36.8298 40.1299 35.3098 40.1299C33.7898 40.1299 32.5498 38.8899 32.5498 37.3699C32.5498 35.8499 33.7898 34.6099 35.3098 34.6099Z" fill="#E0E2DB"/>
<path fill-rule="evenodd" clip-rule="evenodd" d="M35.3098 46.77C36.8298 46.77 38.0698 48.01 38.0698 49.53C38.0698 51.05 36.8298 52.29 35.3098 52.29C33.7898 52.29 32.5498 51.05 32.5498 49.53C32.5498 48.01 33.7898 46.77 35.3098 46.77Z" fill="#E0E2DB"/>
<path d="M61.2897 28.6699C60.6497 30.5899 60.3098 32.5899 60.2598 34.6099" stroke="#E0E2DB" stroke-width="2.5" stroke-linecap="round" stroke-linejoin="round"/>
<path d="M8.00977 28.6699C8.64977 30.5899 8.98976 32.5899 9.03976 34.6099" stroke="#E0E2DB" stroke-width="2.5" stroke-linecap="round" stroke-linejoin="round"/>
<path d="M46.3506 82.7798C49.2906 80.3798 53.0106 79.1598 56.8006 79.3498" stroke="#E0E2DB" stroke-width="2.5" stroke-linecap="round" stroke-linejoin="round"/>
<path d="M22.5399 82.7798C19.5999 80.3798 15.8798 79.1598 12.0898 79.3498" stroke="#E0E2DB" stroke-width="2.5" stroke-linecap="round" stroke-linejoin="round"/>
<path d="M38.42 19.79C38.26 21.82 36.49 23.35 34.46 23.21C32.43 23.35 30.66 21.82 30.5 19.79" stroke="#E0E2DB" stroke-width="2.5" stroke-linecap="round" stroke-linejoin="round"/>
</svg>
