<svg width="52" height="74" viewBox="0 0 52 74" fill="none" xmlns="http://www.w3.org/2000/svg">
<path d="M28.9298 58.8098H14.8998C13.1398 58.8098 11.4598 59.5098 10.2198 60.7498C8.9798 61.9898 8.2798 63.6798 8.2798 65.4298C8.2798 69.0898 11.2498 72.0498 14.9098 72.0498H43.8598C47.5198 72.0498 50.4798 69.0798 50.4798 65.4298C50.4798 61.7698 47.5098 58.8098 43.8598 58.8098H40.1898M45.2798 58.8098C45.2798 58.8098 56.2098 18.3398 40.2198 6.68985C24.2198 -4.96015 13.1098 8.41985 13.6598 14.7198C14.2098 21.0198 13.6598 33.0498 13.6598 33.0498C13.6598 33.0498 9.5598 26.2299 3.5098 30.9799C-2.5402 35.7299 7.7598 42.9199 10.7298 46.5699C13.6998 50.2199 14.3898 50.1499 13.6598 58.8199" stroke="#E0E2DB" stroke-width="2.5" stroke-linecap="round" stroke-linejoin="round"/>
</svg>
