<svg width="65" height="67" viewBox="0 0 65 67" fill="none" xmlns="http://www.w3.org/2000/svg">
<path fill-rule="evenodd" clip-rule="evenodd" d="M23.7595 25.9897C25.2695 25.9897 26.4995 27.2197 26.4995 28.7297C26.4995 30.2397 25.2695 31.4697 23.7595 31.4697C22.2495 31.4697 21.0195 30.2397 21.0195 28.7297C21.0195 27.2197 22.2495 25.9897 23.7595 25.9897ZM40.6795 25.9897C42.1895 25.9897 43.4195 27.2197 43.4195 28.7297C43.4195 30.2397 42.1895 31.4697 40.6795 31.4697C39.1695 31.4697 37.9395 30.2397 37.9395 28.7297C37.9395 27.2197 39.1695 25.9897 40.6795 25.9897Z" fill="#E0E2DB"/>
<path d="M45.6992 50.3496C50.6892 53.7196 53.7292 59.3196 53.8392 65.3396" stroke="#E0E2DB" stroke-width="2.5" stroke-linecap="round" stroke-linejoin="round"/>
<path d="M18.3793 50.3496C13.3893 53.7196 10.3493 59.3196 10.2393 65.3396" stroke="#E0E2DB" stroke-width="2.5" stroke-linecap="round" stroke-linejoin="round"/>
<path d="M53.9499 23.3999C54.0999 27.0399 53.9499 33.1899 53.9499 33.1899C53.9499 43.5699 43.5098 55.2299 32.0998 55.2299C20.6898 55.2299 7.48985 43.2199 10.0699 23.4799" stroke="#E0E2DB" stroke-width="2.5" stroke-linecap="round" stroke-linejoin="round"/>
<path d="M53.9498 23.3996C42.8298 24.3296 33.0698 16.7796 32.0098 8.03955" stroke="#E0E2DB" stroke-width="2.5" stroke-linecap="round" stroke-linejoin="round"/>
<path d="M10.0596 23.3996C21.1696 24.3296 30.9396 16.7796 31.9996 8.03955" stroke="#E0E2DB" stroke-width="2.5" stroke-linecap="round" stroke-linejoin="round"/>
<path d="M14.4597 44.9898C13.2197 48.7598 6.77966 50.0098 5.18966 47.1498C5.18966 47.1498 1.16967 39.9198 1.50967 32.5898C2.27967 16.3598 16.4697 1.76976 32.9997 2.00976" stroke="#E0E2DB" stroke-width="2.5" stroke-linecap="round" stroke-linejoin="round"/>
<path d="M33.0098 2.00977C50.7098 2.46977 62.8098 17.3998 62.8098 32.5898C62.7598 37.6198 61.5198 42.5598 59.1998 47.0198C59.1998 47.0198 54.2098 51.2398 49.9398 44.8598" stroke="#E0E2DB" stroke-width="2.5" stroke-linecap="round" stroke-linejoin="round"/>
<path d="M39.1094 39.9297C36.9394 43.1197 34.7894 43.9797 31.4694 43.9797C28.7694 43.9797 27.0594 42.8497 24.8994 39.9297" stroke="#E0E2DB" stroke-width="2.5" stroke-linecap="round" stroke-linejoin="round"/>
</svg>
