<svg width="76" height="82" viewBox="0 0 76 82" fill="none" xmlns="http://www.w3.org/2000/svg">
<path d="M6.85016 60.62V53.0999C6.85016 35.8099 20.8702 21.8 38.1602 21.79M38.1602 21.79C55.4502 21.79 69.4602 35.8099 69.4702 53.0999V60.62M38.1602 21.79C43.7002 21.79 48.2002 17.29 48.2002 11.75C48.2002 6.20997 43.7002 1.70996 38.1602 1.70996C32.6102 1.70996 28.1202 6.20997 28.1202 11.75C28.1202 17.29 32.6202 21.79 38.1602 21.79ZM10.1402 60.62C10.1402 60.62 8.13017 63.84 8.61017 73.67M24.0202 60.62C22.7602 62.9 22.9302 64.8 22.9302 67.4M24.0202 79.84C23.0402 78.62 22.8902 76.47 22.9302 73.06M60.9402 79.84C62.2002 77.56 62.0302 75.66 62.0302 73.06M60.9402 60.62C61.9202 61.84 62.0702 63.99 62.0402 67.4M38.1602 60.62V63.88M38.1602 79.8499V75.59M74.1202 66.36C74.1202 63.19 71.5502 60.62 68.3802 60.62H7.94019C6.42019 60.62 4.96019 61.22 3.88019 62.3C2.80019 63.38 2.2002 64.84 2.2002 66.36V74.11C2.2002 77.28 4.77019 79.8499 7.94019 79.8499H68.3902C69.9102 79.8499 71.3702 79.25 72.4502 78.17C73.5302 77.09 74.1302 75.63 74.1302 74.11V66.36H74.1202Z" stroke="#E0E2DB" stroke-width="2.5" stroke-linecap="round" stroke-linejoin="round"/>
</svg>
