<svg width="68" height="85" viewBox="0 0 68 85" fill="none" xmlns="http://www.w3.org/2000/svg">
<path d="M29.3297 13.96C28.7897 14.09 28.2397 14.16 27.6797 14.16C23.9097 14.16 20.8597 11.1 20.8497 7.33002C20.8497 4.96002 22.0697 2.77002 24.0897 1.52002M19.8797 17.53C17.0597 17.53 14.7797 15.25 14.7797 12.43C14.7797 11.75 14.9097 11.07 15.1797 10.44M39.5397 17.53C36.7197 17.53 34.4397 15.25 34.4397 12.43C34.4397 11.75 34.5697 11.07 34.8397 10.44M13.0197 78.84H21.4397M2.63971 46.34H41.7197M31.5197 78.84H38.4697C41.5497 78.84 44.0497 76.34 44.0497 73.26V70.33M49.3697 37.65C58.5197 37.65 65.9397 45.07 65.9397 54.22C65.9397 63.37 58.5197 70.79 49.3697 70.79M49.3697 41.78C56.0997 41.92 61.4497 47.48 61.3197 54.21C61.4497 60.94 56.0997 66.51 49.3697 66.64M9.4397 38.08H49.2097M44.0197 38.08C44.3997 36.64 44.1597 35.1 43.3697 33.84L37.6197 24.7C36.0297 22.17 32.6997 21.41 30.1797 23L15.2397 32.39C13.3297 33.59 12.3697 35.86 12.8297 38.08M49.2097 27.51H1.92969V75.48C1.92969 79.95 5.54968 83.57 10.0197 83.57H41.1197C45.5897 83.57 49.2097 79.95 49.2097 75.48V27.51Z" stroke="#E0E2DB" stroke-width="2.5" stroke-linecap="round" stroke-linejoin="round"/>
</svg>
