<svg width="81" height="56" viewBox="0 0 81 56" fill="none" xmlns="http://www.w3.org/2000/svg">
<path d="M1.94964 43.3498C1.64964 46.7998 -0.27037 54.0898 10.9396 54.0898H75.2596C75.2596 54.0898 79.2696 54.0998 79.2696 48.9898M61.6196 45.9198V54.0898M22.6596 45.9198V54.0898M66.2396 18.7298C66.2396 20.9098 66.0696 23.0798 65.7496 25.2398M59.9096 40.9598C59.9096 40.9598 64.2896 38.0898 64.8496 33.1598M40.9796 12.7398H43.3696M35.6896 19.9798H39.4096M45.7496 6.26981H49.2696M18.0596 26.5498C18.9796 29.7798 29.7596 32.8598 41.1396 23.9798M45.7496 18.7198C45.7496 18.7198 49.2596 15.4298 49.6696 2.0498M15.3896 45.9098H66.4596C66.4596 45.9098 72.5396 46.7398 71.3496 2.05981H42.7396C42.7396 2.05981 45.5096 23.2498 18.3496 26.3198C18.3496 26.3198 0.429621 27.5498 15.3996 45.9098H15.3896Z" stroke="#E0E2DB" stroke-width="2.5" stroke-linecap="round" stroke-linejoin="round"/>
</svg>
