<svg width="90" height="43" viewBox="0 0 90 43" fill="none" xmlns="http://www.w3.org/2000/svg">
<path d="M12.7503 40.9598V38.1398C12.7503 18.0698 27.7703 1.77979 46.2603 1.77979C60.9803 1.77979 73.5002 12.0998 77.9902 26.4298C77.9902 26.4298 79.1803 30.4598 78.9403 32.4098M79.7603 40.9598H1.54023M1.63026 40.9598C1.63026 40.9598 0.510251 26.0498 6.12025 26.0798L14.6102 26.1298M17.5903 19.2898H31.2703M31.2703 19.2898V12.8198M31.2703 19.2898V26.5798M31.2703 19.2898H39.4802M31.9302 40.9498V33.5298H42.6903V36.5798M60.5303 5.23979V14.0498H71.3403M88.5803 40.9498H50.4902C50.1502 40.0798 49.9702 39.1598 49.9802 38.2298C49.9802 34.1298 53.3003 30.8098 57.4003 30.8098C59.2203 30.8098 60.9703 31.4698 62.3203 32.6798C62.7503 28.9298 65.9203 26.1098 69.6903 26.1098C73.7003 26.1098 76.9902 29.2998 77.1102 33.3098C78.3502 32.4598 79.8102 32.0098 81.3102 32.0098C85.4102 32.0098 88.7302 35.3298 88.7302 39.4298C88.7302 39.9398 88.6803 40.4498 88.5703 40.9498H88.5803Z" stroke="#E0E2DB" stroke-width="2.5" stroke-linecap="round" stroke-linejoin="round"/>
</svg>
