<svg width="83" height="54" viewBox="0 0 83 54" fill="none" xmlns="http://www.w3.org/2000/svg">
<path d="M1.73047 10.8302C1.73047 10.8302 17.2605 7.85018 28.4305 24.8402C40.3405 42.9502 69.0904 39.7302 81.1704 10.8302M73.5305 23.6102L68.2304 19.3102L64.8405 23.5802L69.7705 27.5202M38.1405 33.5402L36.2005 40.4502L41.4405 41.9302L43.2805 35.3902M22.3004 17.6602L26.3004 12.4302L21.9405 9.15018L18.3105 14.3702M66.0105 21.5502C64.6705 23.1102 62.4405 22.7402 60.6205 21.1802C58.8005 19.6302 57.4204 14.2002 57.4204 14.2002H57.4405C57.7705 14.2302 63.0405 14.7302 64.8105 16.2402C66.6405 17.8002 67.3605 19.9602 66.0305 21.5402L66.0105 21.5602V21.5502ZM38.6005 41.2202C40.5705 41.7702 41.1904 43.9502 40.5804 46.2702C39.9604 48.5902 35.6605 52.1602 35.6605 52.1602V52.1402C35.5405 51.8302 33.7304 46.8402 34.3304 44.5902C34.9504 42.2602 36.5904 40.6802 38.5804 41.2202H38.6005ZM24.2905 10.8002C22.6005 9.64017 22.7305 7.37019 24.0605 5.38019C25.3905 3.39019 30.6305 1.43018 30.6305 1.43018V1.4502C30.6305 1.7802 30.7205 7.09017 29.4205 9.02017C28.0805 11.0102 26.0205 11.9702 24.3105 10.8202H24.2905V10.8002Z" stroke="#E0E2DB" stroke-width="2.5" stroke-linecap="round" stroke-linejoin="round"/>
</svg>
