<svg width="75" height="77" viewBox="0 0 75 77" fill="none" xmlns="http://www.w3.org/2000/svg">
<path d="M44.4503 44.1301C43.1903 42.1101 43.4703 39.5001 45.1203 37.7901C47.1103 35.7401 50.3803 35.6901 52.4303 37.6801C54.4803 39.6701 54.5303 42.9401 52.5403 44.9901C51.0503 46.5301 48.7703 46.9901 46.8003 46.1501M38.8303 45.1501C37.9603 44.9301 37.1603 44.4801 36.5103 43.8501C34.4603 41.8601 34.4103 38.5901 36.3903 36.5401C38.3803 34.4901 41.6503 34.4401 43.7003 36.4301C44.1903 36.9001 44.5803 37.4601 44.8503 38.0901M39.2903 35.0401C40.8503 32.2601 39.8503 28.7401 37.0703 27.1801C36.9603 27.1201 36.8503 27.0601 36.7403 27.0101C36.7403 27.0101 45.4903 22.9801 39.4303 15.4201C41.9203 15.3801 53.2103 7.00014 57.3903 1.39014C57.1803 5.41014 57.2603 9.44013 57.6103 13.4501C57.8903 15.4701 58.6103 17.4101 59.7103 19.1301C50.1103 20.4901 57.8503 29.9001 57.8503 29.9001C51.8003 28.5201 48.6103 36.2301 48.6103 36.2301M44.0603 36.6801C44.0603 36.6801 43.1703 30.5901 48.4203 20.9001M52.2403 45.3101C54.1103 47.8901 57.7203 48.4701 60.3103 46.6001C60.4103 46.5301 60.5003 46.4501 60.6003 46.3801C60.6003 46.3801 62.0703 60.7001 71.4803 58.3801C70.4703 60.6501 69.7703 69.4401 73.1003 75.5801C70.3403 73.6501 67.3203 72.1101 64.1303 71.0101C62.1803 70.4201 60.1203 70.2502 58.0903 70.5302C60.8903 61.2502 49.1003 64.3101 49.1003 64.3101C52.9003 59.4001 46.3503 52.2501 46.3503 52.2501M47.9103 47.5101C52.7703 51.2401 57.1803 55.5101 61.0503 60.2501M34.9303 40.1501C34.9303 40.1501 29.8203 43.3101 26.5203 38.0601C26.5203 38.0601 22.7703 46.9301 15.0203 41.1101C15.0603 43.6001 7.04031 55.1501 1.57031 59.5001C5.58031 59.1701 9.61031 59.1201 13.6303 59.3401C15.6603 59.5601 17.6203 60.2101 19.3703 61.2601C20.4303 51.6301 30.0703 59.0601 30.0703 59.0601C28.5003 53.0601 37.2503 49.2901 37.2503 49.2901M37.2203 45.0801C37.2203 45.0801 30.3003 44.3701 20.7703 49.9201M38.7203 45.2701C40.7103 43.2201 43.9803 43.1701 46.0303 45.1601C48.0803 47.1501 48.1303 50.4201 46.1503 52.4701C44.1603 54.5201 40.8903 54.5701 38.8403 52.5801C36.7903 50.5901 36.7403 47.3201 38.7303 45.2701H38.7203Z" stroke="#E0E2DB" stroke-width="2.5" stroke-linecap="round" stroke-linejoin="round"/>
</svg>
