<svg width="68" height="84" viewBox="0 0 68 84" fill="none" xmlns="http://www.w3.org/2000/svg">
<path d="M28.5898 9.87006C27.5498 8.94006 26.9598 7.61006 26.9598 6.21006C26.9598 3.51006 29.1599 1.31006 31.8599 1.31006C34.5699 1.31006 36.7599 3.50006 36.7599 6.21006C36.7599 7.61006 36.1699 8.93006 35.1299 9.87006M34.3398 65.4501V13.9301H29.3899V65.4501M29.3899 56.4501L34.3398 51.2101M29.3899 39.8801L34.3398 34.9901M29.3899 25.2601L34.3398 20.3101M37.7399 11.9001C37.7399 10.7801 36.8298 9.87006 35.7098 9.87006H28.0099C26.8899 9.87006 25.9799 10.7801 25.9799 11.9001C25.9799 13.0201 26.8899 13.9301 28.0099 13.9301H35.7098C36.8298 13.9301 37.7399 13.0201 37.7399 11.9001ZM62.1499 16.7201H34.3398V26.7701H62.1499L66.4199 21.6801L62.1499 16.7201ZM5.71985 22.7901H29.3899V32.8401H5.71985L2.08984 27.7501L5.71985 22.7901ZM13.1199 82.0301C13.1199 72.7901 21.5199 65.2901 31.8599 65.2901C42.1999 65.2901 50.5999 72.7901 50.5999 82.0301H13.1199Z" stroke="#E0E2DB" stroke-width="2.5" stroke-linecap="round" stroke-linejoin="round"/>
</svg>
