<svg width="64" height="81" viewBox="0 0 64 81" fill="none" xmlns="http://www.w3.org/2000/svg">
<path d="M11.0702 10.7698L15.0202 11.1498M49.4902 23.8798L52.3002 21.0698M57.9301 39.6098L55.1201 36.7998M39.4801 8.99977L36.6701 6.18977M8.53015 38.1998L6.94015 34.5598M34.9001 50.7798C34.9001 50.7798 42.4301 44.5098 46.3401 42.7498C50.2501 40.9898 50.8902 58.4398 47.9102 60.7798C44.9302 63.1198 35.9301 56.7998 35.2001 56.0298M29.1501 50.7898C29.1501 50.7898 21.6202 44.5198 17.7102 42.7598C13.8002 40.9898 13.1601 58.4498 16.1401 60.7898C19.1201 63.1298 28.1201 56.8098 28.8601 56.0398M34.4102 56.4698C34.4102 56.4698 38.1001 68.5798 43.1201 72.1698C43.1201 72.1698 39.0601 77.0898 37.7501 77.9598C36.8501 78.5498 32.6301 71.0798 32.0101 64.0598M29.7901 56.4898C29.7901 56.4898 27.0102 70.2498 21.8302 73.5998C21.8302 73.5998 26.6702 78.0698 27.9402 78.9898C29.2102 79.9098 32.9801 64.9598 32.1801 56.7598M41.5601 59.9898C39.8001 60.5798 37.9901 61.0098 36.1501 61.2598M28.5502 61.3398C26.5002 61.0998 24.4701 60.6498 22.5101 59.9898M16.6302 42.7698C14.2802 39.5398 13.0201 35.6398 13.0301 31.6498C13.0301 21.1598 21.5401 12.6498 32.0301 12.6498C42.5201 12.6498 51.0301 21.1598 51.0301 31.6498C51.0301 35.6398 49.7701 39.5398 47.4301 42.7698M14.2702 55.7098C6.63015 50.0798 2.12014 41.1498 2.12014 31.6498C2.10014 16.7298 13.0901 4.08977 27.8701 2.02977C30.6001 1.66977 33.3701 1.66977 36.1101 2.02977C50.9001 4.07977 61.9101 16.7198 61.9201 31.6498C61.9201 41.2298 57.3302 50.2298 49.5702 55.8498M34.7501 50.0498C33.0901 49.8098 31.4101 49.8098 29.7501 50.0498C28.8301 52.5198 28.4702 54.5398 29.1902 56.3698C31.1102 56.6998 33.0702 56.6998 34.9902 56.3698C35.3402 54.2698 35.2601 52.1198 34.7501 50.0498Z" stroke="#E0E2DB" stroke-width="2.5" stroke-linecap="round" stroke-linejoin="round"/>
</svg>
