<svg width="73" height="75" viewBox="0 0 73 75" fill="none" xmlns="http://www.w3.org/2000/svg">
<path d="M41.8498 17.9497C41.8498 17.9497 56.4898 5.75975 64.0998 2.31975C71.7098 -1.12025 72.9598 32.8298 67.1598 37.3898C61.3598 41.9498 43.8598 29.6498 42.4198 28.1398M42.4198 27.2397C42.4198 27.2397 50.0298 27.0598 56.2198 29.7798M62.7398 34.0997C66.7998 35.9197 68.1598 36.7697 65.7498 38.1097M30.6598 17.9397C30.6598 17.9397 16.0098 5.74974 8.40984 2.30974C0.809838 -1.13026 -0.45022 32.8197 5.34978 37.3797C11.1498 41.9397 28.6498 29.6397 30.0798 28.1297M30.0798 27.2297C25.9598 27.7097 21.9298 28.7998 18.1298 30.4598M12.4397 32.8197C8.37975 34.6397 4.3398 36.7597 6.7498 38.0997M40.8798 28.9598C40.8798 28.9598 48.0598 52.5297 57.8198 59.4997C57.8198 59.4997 49.9298 69.0798 47.3698 70.7598C45.6298 71.9098 37.4098 57.3797 36.2098 43.7297M31.8898 29.0097C31.8898 29.0097 26.4698 55.7797 16.3998 62.2997C16.3998 62.2997 25.8198 70.9897 28.2898 72.7897C30.7598 74.5897 38.0998 45.4997 36.5398 29.5497M41.5499 16.5198C38.3299 16.0498 35.0498 16.0498 31.8298 16.5198C30.0298 21.3298 29.3398 25.2597 30.7298 28.8097C34.4698 29.4597 38.2798 29.4597 42.0198 28.8097C42.6898 24.7197 42.5299 20.5498 41.5499 16.5198Z" stroke="#E0E2DB" stroke-width="2.5" stroke-linecap="round" stroke-linejoin="round"/>
</svg>
