<svg width="94" height="71" viewBox="0 0 94 71" fill="none" xmlns="http://www.w3.org/2000/svg">
<path d="M45.5701 45.8501H12.9501C10.0101 45.8701 7.21006 47.1001 5.21006 49.2501C3.14006 51.4801 1.99006 54.4101 2.00006 57.4501V57.9601C1.99006 61.0501 3.15006 64.0401 5.26006 66.3001C7.29006 68.4901 10.1401 69.7401 13.1301 69.7501H66.4601C69.3901 69.7301 72.1801 68.5101 74.1701 66.3701C76.2301 64.1501 77.3801 61.2301 77.3601 58.2001C77.3601 51.3701 72.1401 45.8401 65.7001 45.8401H62.6001M11.9401 45.8401C14.7901 34.8601 22.0501 5.97012 38.1701 2.29012C58.1201 -2.25988 71.9501 16.0101 79.4701 31.9801C80.1801 33.4801 80.7501 34.7701 81.2101 35.8801C87.6801 36.0601 92.8001 41.4001 92.7001 47.8701C92.7001 54.4901 87.6301 59.8601 81.3801 59.8601C80.0001 59.8601 78.6401 59.6001 77.3601 59.0801M70.2301 45.8301C70.8001 42.1501 73.0501 38.9301 76.3201 37.1401C73.3801 34.2401 68.7001 31.1601 67.2401 31.2101M65.9601 25.5401C66.4101 28.3201 69.0001 38.6501 67.2401 45.8201M76.3201 37.1301C77.8401 36.3601 79.5201 35.9301 81.2201 35.8601" stroke="#E0E2DB" stroke-width="2.5" stroke-linecap="round" stroke-linejoin="round"/>
</svg>
