<svg width="69" height="85" viewBox="0 0 69 85" fill="none" xmlns="http://www.w3.org/2000/svg">
<path fill-rule="evenodd" clip-rule="evenodd" d="M27.5203 42.0098C28.6203 42.0098 29.5003 42.8998 29.5103 43.9998C29.5103 45.0998 28.6203 45.9798 27.5203 45.9898C26.4203 45.9898 25.5303 45.0998 25.5303 43.9998C25.5303 42.8998 26.4203 42.0198 27.5203 42.0098ZM39.7903 42.0098C40.8903 42.0098 41.7703 42.8998 41.7703 43.9998C41.7703 45.0998 40.8803 45.9898 39.7903 45.9898C38.6903 45.9898 37.8003 45.0998 37.8003 43.9998C37.8003 42.8998 38.6903 42.0198 39.7903 42.0098Z" fill="#E0E2DB"/>
<path d="M36.3704 25.5299H17.0304C15.3204 25.5299 13.6704 26.1799 12.4404 27.3599C11.2304 28.5199 10.5504 30.1099 10.5404 31.7899V32.0699C10.5404 33.7699 11.2404 35.3999 12.4704 36.5699C13.7304 37.7699 15.4004 38.4399 17.1404 38.4299H48.7704C50.4704 38.4299 52.1104 37.7799 53.3404 36.6099C54.5404 35.4599 55.2304 33.8699 55.2304 32.1999C55.1604 28.4499 52.0604 25.4699 48.3104 25.5299H46.4704M16.4304 25.5299C18.1204 19.6099 22.4304 4.01989 31.9804 2.03989C43.8104 -0.420114 52.0104 9.43989 56.4704 18.0599C56.8904 18.8699 57.2304 19.5699 57.5004 20.1699C61.1604 20.0999 64.2004 22.9799 64.3104 26.6399C64.2404 30.2799 61.2404 33.1699 57.6004 33.1099C56.7904 33.1099 55.9804 32.9699 55.2204 32.6899M50.9904 25.5399C51.3704 23.4899 52.7204 21.7499 54.6004 20.8499C52.8504 19.2899 50.0804 17.6199 49.2104 17.6499M48.4504 14.5899C48.7104 16.0899 50.2504 21.6699 49.2104 25.5299M54.6004 20.8399C55.5104 20.4199 56.5004 20.1899 57.5004 20.1599M1.65039 83.0899C1.75039 75.1699 5.34039 67.7099 11.4604 62.6799M54.9904 60.9399C62.3304 66.1799 67.0204 74.1599 67.0204 83.0899M50.5904 49.2399C50.6604 45.1999 50.6204 42.3199 50.5004 38.1999M16.0104 38.3399C15.8704 42.4699 15.9404 45.0699 16.0104 48.8099M39.7704 52.5899C41.4404 50.0899 44.2504 48.5999 47.2504 48.6299C51.9804 48.5099 55.9204 52.2499 56.0504 56.9799C55.9804 60.8199 53.3304 64.1299 49.6004 65.0299C49.6404 65.4799 49.6704 65.9399 49.6704 66.4099C49.6704 74.6099 42.6604 81.2699 34.0104 81.2699C25.3604 81.2699 18.3604 74.6099 18.3604 66.4099C18.3604 66.0399 18.3704 65.6799 18.4004 65.3199C18.2304 65.3199 18.0604 65.3299 17.8804 65.3299C13.1504 65.4499 9.21039 61.7099 9.08039 56.9799C9.21039 52.2499 13.1504 48.5099 17.8804 48.6299C21.3304 48.5899 24.4804 50.5599 25.9604 53.6699C28.4104 52.2699 31.1904 51.5399 34.0104 51.5499C35.9804 51.5499 37.9304 51.8999 39.7804 52.5899H39.7704ZM29.3604 57.1999H37.7904C37.7904 57.1999 34.5204 65.6599 29.3604 57.1999Z" stroke="#E0E2DB" stroke-width="2.5" stroke-linecap="round" stroke-linejoin="round"/>
</svg>
