<svg width="78" height="61" viewBox="0 0 78 61" fill="none" xmlns="http://www.w3.org/2000/svg">
<path d="M52.5899 24.6199C50.7199 34.0999 50.7199 43.8499 52.5899 53.3299H70.0899M70.0899 53.3299C68.1899 43.4899 68.1899 33.3899 70.0899 23.5499M70.0899 53.3299C70.7699 55.2499 71.5799 57.1199 72.4999 58.9299M52.5699 53.2099C53.0199 55.1899 53.5899 57.1399 54.2899 59.0499M61.4299 53.7399C61.8799 55.7199 62.4499 57.6699 63.1499 59.5799M2.42991 16.5299C2.42991 16.5299 6.26991 17.6999 23.1499 15.7099M76.4899 9.03986C76.4899 9.03986 63.2799 10.6299 53.4299 9.03986M51.3899 44.2799L58.9699 39.6399L63.4699 44.2799L68.6799 39.0599M34.0799 3.38989L38.7199 11.5299L34.0799 16.3599L36.1799 19.6899M74.5999 1.6499C51.0899 3.5999 27.4599 3.5999 3.93992 1.6499C1.57992 8.6199 1.57992 16.1699 3.93992 23.1299C27.4299 25.4799 51.0999 25.4799 74.5999 23.1299C77.4099 16.3999 77.4699 9.2399 74.5999 1.6499Z" stroke="#E0E2DB" stroke-width="2.5" stroke-linecap="round" stroke-linejoin="round"/>
</svg>
