<svg width="89" height="45" viewBox="0 0 89 45" fill="none" xmlns="http://www.w3.org/2000/svg">
<path d="M7.89995 30.6699C7.89995 30.6699 0.339896 30.33 1.9099 37.08C3.2299 42.75 9.45991 42.9799 13.4899 42.9799H77.7199C77.7199 42.9799 81.7199 42.9899 81.7199 37.8799M62.7699 34.7999L64.09 42.96M26.9799 34.7999L26.2699 42.96M65.6099 7.85992C65.2599 10.0099 64.75 12.1199 64.09 14.1899M53.6299 27.2299C53.6299 27.2299 58.7499 26.1899 61.0999 21.8199M19.4199 12.8599C19.4199 12.8599 10.0899 29.8599 20.6199 34.4199C37.5799 35.4199 54.5899 35.4199 71.5499 34.4199C71.5499 34.4199 86.1299 17.64 87.4099 1.95996L59.9199 9.42993C59.9199 9.42993 58.6299 20.2899 53.8599 21.9299C50.3599 23.1299 34.3899 27.9599 31.0599 23.0999C28.7099 19.6599 29.4399 17.5499 31.0599 14.0699C32.6799 10.5999 19.4199 12.8699 19.4199 12.8699V12.8599Z" stroke="#E0E2DB" stroke-width="2.5" stroke-linecap="round" stroke-linejoin="round"/>
</svg>
