<svg width="73" height="72" viewBox="0 0 73 72" fill="none" xmlns="http://www.w3.org/2000/svg">
<path d="M36.5497 1.2998V35.6798V70.0498M40.3197 3.3298L36.5497 9.2398L32.7797 3.3298M43.5897 9.2398L36.5497 12.7898L29.5097 9.2398M42.1697 17.8098L36.5497 23.4298L30.9297 17.8098M40.3197 68.0198L36.5497 62.1098L32.7797 68.0198M43.5897 62.1098L36.5497 58.5598L29.5097 62.1098M42.1697 53.5398L36.5497 47.9198L30.9297 53.5398M36.5497 35.6698H2.17969M36.5497 35.6698H70.9297M36.5497 35.6698L60.8597 11.3598M36.5497 35.6698L60.8597 59.9798M36.5497 35.6698L12.2497 59.9798M36.5497 35.6698L12.2497 11.3598M4.20972 39.4398L10.1197 35.6698L4.20972 31.8998M10.1197 42.7098L13.6697 35.6698L10.1197 28.6298M18.6897 41.2898L24.3097 35.6698L18.6897 30.0498M68.8997 39.4398L62.9897 35.6698L68.8997 31.8998M62.9897 42.7098L59.4397 35.6698L62.9897 28.6298M54.4197 41.2898L48.7997 35.6698L54.4197 30.0498M63.1297 16.6198L54.1197 18.0998L55.5997 9.0898M63.1297 54.7198L54.1197 53.2398L55.5997 62.2498M9.97968 54.7198L18.9897 53.2398L17.5097 62.2498M9.97968 16.6198L18.9897 18.0998L17.5097 9.0898" stroke="#E0E2DB" stroke-width="2.5" stroke-linecap="round" stroke-linejoin="round"/>
</svg>
