<svg width="69" height="71" viewBox="0 0 69 71" fill="none" xmlns="http://www.w3.org/2000/svg">
<path d="M47.3902 57.0498H7.24014L4.39016 69.5398H65.1101L62.2801 57.0498H55.8401M10.6601 57.0498C5.00015 50.9798 1.86014 42.9798 1.87014 34.6798C1.87014 16.5298 16.5901 1.8098 34.7401 1.7998C52.8901 1.7998 67.6101 16.5198 67.6201 34.6798C67.6201 42.9798 64.4901 50.9798 58.8301 57.0498M16.7902 57.0498C16.7902 57.0498 24.4002 49.3298 34.0102 50.1998C43.6202 51.0698 43.9901 57.0498 43.9901 57.0498M35.5901 50.3998L42.5901 35.0798C43.6101 32.7598 46.2601 31.6398 48.6201 32.5298C52.3801 33.8298 49.7002 38.8198 49.1702 39.5498M29.1201 50.1298L27.2701 38.6898C27.0201 36.9698 25.4702 35.7398 23.7302 35.8998C21.0002 36.0798 21.8701 39.8798 22.0901 40.4598M13.3202 31.9998L16.1402 29.1798M30.2902 10.8698L33.1101 8.0498M43.4901 21.2498L40.6702 18.4298M57.3001 24.0798L60.1201 21.2598M20.3701 16.2298L17.5501 13.4098M52.4401 51.0798L49.6201 48.2598M17.5601 47.7798L14.7401 44.9598M31.7201 33.6898L34.5402 30.8698" stroke="#E0E2DB" stroke-width="2.5" stroke-linecap="round" stroke-linejoin="round"/>
</svg>
