<svg width="73" height="78" viewBox="0 0 73 78" fill="none" xmlns="http://www.w3.org/2000/svg">
<path fill-rule="evenodd" clip-rule="evenodd" d="M39.2301 62.04C40.5601 62.04 41.6301 63.11 41.6301 64.44C41.6301 65.77 40.5601 66.84 39.2301 66.84C37.9001 66.84 36.8301 65.77 36.8301 64.44C36.8301 63.11 37.9001 62.04 39.2301 62.04Z" fill="#E0E2DB"/>
<path fill-rule="evenodd" clip-rule="evenodd" d="M40.8404 49.8496C42.1704 49.8496 43.2404 50.9196 43.2404 52.2496C43.2404 53.5796 42.1704 54.6496 40.8404 54.6496C39.5104 54.6496 38.4404 53.5796 38.4404 52.2496C38.4404 50.9196 39.5104 49.8496 40.8404 49.8496Z" fill="#E0E2DB"/>
<path fill-rule="evenodd" clip-rule="evenodd" d="M39.2301 38.0498C40.5601 38.0498 41.6301 39.1198 41.6301 40.4498C41.6301 41.7798 40.5601 42.8498 39.2301 42.8498C37.9001 42.8498 36.8301 41.7798 36.8301 40.4498C36.8301 39.1198 37.9001 38.0498 39.2301 38.0498Z" fill="#E0E2DB"/>
<path fill-rule="evenodd" clip-rule="evenodd" d="M32.3197 12.52C33.2297 12.52 33.9697 13.26 33.9697 14.16C33.9697 15.07 33.2297 15.81 32.3197 15.81C31.4097 15.81 30.6797 15.07 30.6797 14.16C30.6797 13.25 31.4197 12.52 32.3197 12.52Z" fill="#E0E2DB"/>
<path fill-rule="evenodd" clip-rule="evenodd" d="M42.4798 12.52C43.3898 12.52 44.1198 13.26 44.1298 14.16C44.1298 15.07 43.3898 15.81 42.4798 15.81C41.5698 15.81 40.8398 15.07 40.8398 14.16C40.8398 13.25 41.5798 12.52 42.4798 12.52Z" fill="#E0E2DB"/>
<path d="M4.75008 76.3098H68.1701M22.0201 76.3098C15.2701 71.5998 11.2501 63.8798 11.2601 55.6498C11.2601 45.1698 17.7401 35.7899 27.5401 32.0699C22.8601 29.0399 20.0401 23.8398 20.0401 18.2698C20.0401 9.19984 27.4001 1.83984 36.4701 1.83984C45.5401 1.83984 52.9001 9.19984 52.9001 18.2698C52.9001 23.8398 50.0801 29.0399 45.4001 32.0699C55.1901 35.7899 61.6701 45.1698 61.6801 55.6498C61.6801 63.8798 57.6601 71.5898 50.9101 76.3098M19.1401 51.5798L6.17008 42.3298M6.17008 42.3298H1.83008M6.17008 42.3298V37.5598M60.2201 47.2198L66.5401 42.7098M66.5401 42.7098H70.8801M66.5401 42.7098V37.9398M37.2701 17.5598C37.2701 17.5598 44.3901 18.2699 45.6001 18.6299C46.8101 18.9899 38.2401 21.0698 37.2701 20.7998C36.3001 20.5298 37.2701 17.5598 37.2701 17.5598Z" stroke="#E0E2DB" stroke-width="2.5" stroke-linecap="round" stroke-linejoin="round"/>
</svg>
