<svg width="74" height="70" viewBox="0 0 74 70" fill="none" xmlns="http://www.w3.org/2000/svg">
<path d="M35.72 2.99014C35.88 2.50014 36.33 2.17016 36.85 2.16016C37.37 2.16016 37.83 2.49014 37.99 2.99014C40.04 9.32014 44.2801 22.3402 45.4001 25.8102C45.5701 26.3202 46.0501 26.6702 46.5901 26.6702H70.5901C71.1001 26.6702 71.56 27.0001 71.72 27.4901C71.88 27.9801 71.71 28.5201 71.29 28.8301C65.91 32.7401 54.8301 40.7901 51.8801 42.9301C51.4401 43.2501 51.26 43.8101 51.42 44.3301C52.55 47.8001 56.7801 60.8201 58.8401 67.1501C59.0001 67.6401 58.8201 68.1801 58.4001 68.4901C57.9801 68.7901 57.42 68.7901 57 68.4901C51.62 64.5801 40.5401 56.5302 37.5901 54.3902C37.1501 54.0702 36.56 54.0702 36.12 54.3902C33.17 56.5302 22.0901 64.5801 16.7101 68.4901C16.2901 68.8001 15.72 68.8001 15.3 68.4901C14.88 68.1901 14.71 67.6501 14.87 67.1501C16.93 60.8201 21.1601 47.8001 22.2801 44.3301C22.4501 43.8201 22.2801 43.2501 21.8301 42.9301C18.8801 40.7901 7.80003 32.7401 2.42003 28.8301C2.00003 28.5301 1.83004 27.9901 1.99004 27.4901C2.15004 27.0001 2.61005 26.6702 3.12005 26.6702H27.11C27.65 26.6702 28.14 26.3202 28.3 25.8102C29.43 22.3402 33.66 9.32014 35.72 2.99014Z" stroke="#E0E2DB" stroke-width="2.5" stroke-linecap="round" stroke-linejoin="round"/>
</svg>
