<svg width="75" height="72" viewBox="0 0 75 72" fill="none" xmlns="http://www.w3.org/2000/svg">
<path d="M72.1097 27.67L37.0497 38.01L2.19969 27.67M37.0497 2.18997V22.95M37.0497 29.91V38M37.0497 38L58.4197 69.03M37.0497 38L15.6797 68.52M35.2697 3.00998C35.5197 2.23998 36.2397 1.70996 37.0497 1.70996C37.8597 1.70996 38.5897 2.23998 38.8297 3.00998C41.5497 11.36 46.3997 26.3 46.3997 26.3H70.8897C71.6997 26.3 72.4297 26.83 72.6797 27.6C72.9297 28.37 72.6597 29.22 71.9997 29.7L52.1897 44.09C52.1897 44.09 57.0397 59.03 59.7597 67.38C60.0097 68.15 59.7397 68.9999 59.0797 69.4799C58.4197 69.9599 57.5297 69.9599 56.8697 69.4799L37.0597 55.08L17.2497 69.4799C16.5897 69.9599 15.6997 69.9599 15.0397 69.4799C14.3797 68.9999 14.1097 68.15 14.3597 67.38C17.0797 59.03 21.9297 44.09 21.9297 44.09L2.11969 29.7C1.45969 29.22 1.18969 28.37 1.43969 27.6C1.68969 26.83 2.40969 26.3 3.21969 26.3H27.7097C27.7097 26.3 32.5597 11.36 35.2797 3.00998H35.2697Z" stroke="#E0E2DB" stroke-width="2.5" stroke-linecap="round" stroke-linejoin="round"/>
</svg>
