<svg width="88" height="61" viewBox="0 0 88 61" fill="none" xmlns="http://www.w3.org/2000/svg">
<path d="M82.9701 38.8699C74.5101 48.3799 60.0101 54.6599 43.5501 54.6599C27.0901 54.6599 12.5801 48.3799 4.13009 38.8699C2.51009 39.4099 1.44008 40.9499 1.51008 42.6599C1.51008 43.1099 1.61008 43.55 1.81008 43.95C11.5401 53.14 25.8501 59.0399 43.5501 59.0399C61.2501 59.0399 76.9501 52.5799 86.6001 42.6599C86.6501 40.6099 85.0301 38.9199 82.9801 38.8699M62.6201 51.4299C61.1601 38.1499 48.9201 31.08 48.9201 31.08C36.7001 38.05 30.0001 32.3699 30.0001 32.3699C22.2601 37.6999 20.9401 50.3699 20.9401 50.3699M14.3101 47.0999C18.8501 41.3999 22.1001 34.78 23.8401 27.71C26.9401 15.59 21.0601 12.6599 21.0601 12.6599C20.8401 13.8799 21.2801 14.4599 20.2301 15.2499C19.1801 16.0399 20.1201 18.24 19.2801 20.52C18.4401 22.79 15.6701 21.71 15.6701 21.71C11.3601 16.7 13.7201 1.91992 13.7201 1.91992L17.1801 5.03992C20.2801 4.55992 25.8601 4.97995 33.9901 15.2599C34.1401 15.4499 34.3001 15.6399 34.4501 15.8199M48.2701 21.7499C50.2701 21.6899 52.2701 21.47 54.2301 21.09C56.3801 20.8 57.1001 21.7499 57.1001 21.7499C59.5301 24.6799 61.1601 33.79 61.8701 34.84C62.5801 35.89 70.3301 48.4799 70.3301 48.4799M41.0901 25.7499C45.7601 26.7599 49.4601 22.24 48.9401 16.64C48.9401 16.64 44.3301 24.0499 35.0501 13.5499C35.0501 13.5499 32.3301 21.4299 35.5801 23.4799M57.3901 21.7499C65.5401 17.3999 67.9001 20.0299 69.3801 23.4799C70.1001 25.1699 70.8301 28.59 72.4801 31.09C73.6501 32.77 75.1301 34.2199 76.8401 35.3599C75.4101 35.6899 73.9201 35.6899 72.4801 35.3599C69.2601 34.7199 67.0601 30.3699 64.0201 27.0099C62.0701 24.9599 59.8301 23.1799 57.3901 21.7399V21.7499Z" stroke="#E0E2DB" stroke-width="2.5" stroke-linecap="round" stroke-linejoin="round"/>
</svg>
